HIERARCHY
ROOT Hips
{
	OFFSET 62.890800 8.863803 43.568401
	CHANNELS 6 Xposition Yposition Zposition Zrotation Xrotation Yrotation
	JOINT Chest
	{
		OFFSET -0.160400 1.630001 7.806301
		CHANNELS 6 Xposition Yposition Zposition Zrotation Xrotation Yrotation
		JOINT Chest2
		{
			OFFSET 0.000000 0.000000 3.197998
			CHANNELS 6 Xposition Yposition Zposition Zrotation Xrotation Yrotation
			JOINT Neck
			{
				OFFSET 0.000000 0.000001 7.440701
				CHANNELS 6 Xposition Yposition Zposition Zrotation Xrotation Yrotation
				JOINT Head
				{
					OFFSET 0.000000 0.000000 2.173901
					CHANNELS 6 Xposition Yposition Zposition Zrotation Xrotation Yrotation
					End Site
					{
						OFFSET 0.000000 0.000001 10.420303
					}
				}
			}
			JOINT LeftCollar
			{
				OFFSET 2.426399 -1.880099 4.759399
				CHANNELS 6 Xposition Yposition Zposition Zrotation Xrotation Yrotation
				JOINT LeftShoulder
				{
					OFFSET 4.420197 0.000000 0.000000
					CHANNELS 6 Xposition Yposition Zposition Zrotation Xrotation Yrotation
					JOINT LeftElbow
					{
						OFFSET 0.000000 -0.000001 -10.347099
						CHANNELS 6 Xposition Yposition Zposition Zrotation Xrotation Yrotation
						JOINT LeftWrist
						{
							OFFSET 0.000000 -0.000001 -12.496300
							CHANNELS 6 Xposition Yposition Zposition Zrotation Xrotation Yrotation
							End Site
							{
								OFFSET 0.000000 0.000000 -2.173901
							}
						}
					}
				}
			}
			JOINT RightCollar
			{
				OFFSET -2.781502 -1.903799 5.072601
				CHANNELS 6 Xposition Yposition Zposition Zrotation Xrotation Yrotation
				JOINT RightShoulder
				{
					OFFSET -4.012100 0.000000 0.000000
					CHANNELS 6 Xposition Yposition Zposition Zrotation Xrotation Yrotation
					JOINT RightElbow
					{
						OFFSET 0.000000 -0.000001 -10.346600
						CHANNELS 6 Xposition Yposition Zposition Zrotation Xrotation Yrotation
						JOINT RightWrist
						{
							OFFSET 0.000000 -0.000001 -12.562599
							CHANNELS 6 Xposition Yposition Zposition Zrotation Xrotation Yrotation
							End Site
							{
								OFFSET 0.000000 0.000000 -2.173901
							}
						}
					}
				}
			}
		}
	}
	JOINT LeftHip
	{
		OFFSET 2.047997 -0.047200 -2.693199
		CHANNELS 6 Xposition Yposition Zposition Zrotation Xrotation Yrotation
		JOINT LeftKnee
		{
			OFFSET 0.000000 -0.000001 -18.824400
			CHANNELS 6 Xposition Yposition Zposition Zrotation Xrotation Yrotation
			JOINT LeftAnkle
			{
				OFFSET 0.000000 -0.000002 -19.078199
				CHANNELS 6 Xposition Yposition Zposition Zrotation Xrotation Yrotation
				End Site
				{
					OFFSET 0.000000 -9.342100 0.000001
				}
			}
		}
	}
	JOINT RightHip
	{
		OFFSET -2.129898 -0.022300 -2.538300
		CHANNELS 6 Xposition Yposition Zposition Zrotation Xrotation Yrotation
		JOINT RightKnee
		{
			OFFSET 0.000000 -0.000001 -18.644600
			CHANNELS 6 Xposition Yposition Zposition Zrotation Xrotation Yrotation
			JOINT RightAnkle
			{
				OFFSET 0.000000 -0.000002 -18.801399
				CHANNELS 6 Xposition Yposition Zposition Zrotation Xrotation Yrotation
				End Site
				{
					OFFSET 0.000000 -8.914600 0.000001
				}
			}
		}
	}
}
MOTION
Frames: 4
Frame Time: 0.041667
82.476105 87.984695 41.425125 3251.660289 -10.367002 344.156649 -0.160402 1.629992 7.806297 -14.274121 12.170267 0.845581 -0.000002 0.000010 3.198002 5.674300 -6.903891 0.799989 0.000003 0.000010 7.440705 -36.470249 4.717083 32.715442 -0.000004 0.000003 2.173908 0.639920 2.759500 -3.452649 2.426401 -1.880094 4.759396 -170.938407 179.950500 -180.093374 4.420185 0.000000 -0.000014 -22.866807 -8.236539 -124.128620 -0.000001 0.000020 -10.347095 941.835002 -156.523006 -173.835882 0.000014 -0.000005 -12.496296 68.143664 1.737629 -4.893980 -2.781512 -1.903794 5.072606 -178.609611 -192.873778 188.478783 -4.012117 -0.000001 0.000003 4.246470 -10.316727 453.913226 -0.000007 -0.000009 -10.346605 -304.270010 -120.360651 -325.272705 -0.000001 -0.000012 -12.562591 864.635013 554.980519 -884.790573 2.047999 -0.047214 -2.693197 709.669441 -1.945638 -8.769277 0.000015 0.000008 -18.824398 -330.367945 16.203925 7.923992 0.000007 -0.000012 -19.078201 -393.655248 25.934800 6.972127 -2.129898 -0.022307 -2.538304 -708.274498 11.683308 32.522578 0.000004 -0.000001 -18.644602 170.530043 -221.162946 152.278330 0.000003 -0.000005 -18.801401 149.768249 189.521576 136.490512
82.487411 87.985992 41.429329 3251.672310 -10.375093 344.225060 -0.160409 1.629994 7.806313 -14.263378 12.247908 0.658942 0.000007 -0.000004 3.197999 5.663676 -6.929961 0.811034 0.000003 0.000007 7.440705 -36.404864 4.667159 32.758301 -0.000004 0.000000 2.173899 0.523530 2.778205 -3.323157 2.426401 -1.880103 4.759400 -170.946589 179.930583 -179.798815 4.420190 -0.000000 -0.000007 -22.915696 -8.111544 -124.249064 0.000000 0.000016 -10.347090 942.092145 -156.507870 -173.810774 -0.000008 -0.000001 -12.496305 67.771480 1.681841 -4.861662 -2.781507 -1.903805 5.072611 -178.824133 -192.768620 188.793600 -4.012099 -0.000010 -0.000008 4.474518 -10.271513 453.733237 -0.000010 -0.000002 -10.346609 -304.081688 -120.330967 -325.083946 0.000006 -0.000009 -12.562601 864.643592 555.003250 -884.832866 2.048004 -0.047214 -2.693192 709.633159 -1.932402 -8.816400 0.000005 0.000006 -18.824400 -330.298331 16.208713 7.910028 -0.000004 0.000013 -19.078201 -393.702595 25.963851 6.965782 -2.129894 -0.022308 -2.538292 -710.594850 9.683804 32.895509 0.000013 0.000004 -18.644600 171.710437 -222.443975 153.517886 -0.000006 0.000004 -18.801407 151.208681 189.003724 137.885386
82.495209 87.982994 41.432423 3251.577671 -10.377956 344.263445 -0.160399 1.630007 7.806309 -14.158461 12.320930 0.545444 0.000004 0.000016 3.198001 5.664339 -6.934572 0.817250 0.000007 0.000002 7.440704 -36.398788 4.581629 32.798370 -0.000005 -0.000003 2.173899 0.442745 2.644635 -3.264409 2.426418 -1.880104 4.759392 -170.969867 179.930474 -179.624864 4.420191 0.000004 -0.000009 -22.981841 -7.994341 -124.305850 -0.000000 -0.000000 -10.347088 942.256725 -156.504305 -173.834858 0.000009 0.000004 -12.496305 67.501633 1.623142 -4.821017 -2.781489 -1.903799 5.072606 -179.062357 -192.639639 189.071753 -4.012107 0.000003 -0.000003 4.694661 -10.213501 453.532702 -0.000006 -0.000010 -10.346605 -303.827879 -120.311679 -324.815165 -0.000000 -0.000003 -12.562596 864.715063 555.086906 -885.011653 2.048004 -0.047201 -2.693191 709.667692 -1.879125 -8.874712 -0.000001 -0.000011 -18.824404 -330.248034 16.214521 7.936244 -0.000001 -0.000002 -19.078197 -393.710245 25.980901 6.957363 -2.129897 -0.022296 -2.538293 -710.889586 9.378161 32.889967 0.000004 0.000006 -18.644600 172.067874 -222.575853 153.687494 -0.000005 0.000006 -18.801405 151.317268 188.972975 137.911983
82.510506 87.982994 41.438332 3251.581386 -10.400955 344.233557 -0.160398 1.629998 7.806308 -14.175655 12.376903 0.570976 0.000007 0.000009 3.197992 5.638991 -6.931946 0.816992 0.000010 0.000004 7.440705 -36.351821 4.510675 32.751064 0.000004 0.000004 2.173921 0.310631 2.645328 -3.193754 2.426401 -1.880100 4.759394 -170.896401 179.979774 -179.571698 4.420212 0.000002 -0.000005 -23.120750 -7.911124 -124.285756 0.000006 0.000003 -10.347088 942.147551 -156.464280 -173.954536 0.000000 -0.000005 -12.496289 67.582482 1.521948 -4.792012 -2.781497 -1.903803 5.072601 -179.309937 -192.473583 189.274883 -4.012107 -0.000003 -0.000004 4.969561 -10.148801 453.371947 -0.000004 0.000005 -10.346596 -303.520356 -120.275711 -324.473655 -0.000000 0.000000 -12.562593 864.840738 555.197391 -885.281746 2.047997 -0.047209 -2.693198 709.655671 -1.877456 -8.828215 -0.000010 -0.000010 -18.824400 -330.235821 16.242274 7.929813 -0.000010 -0.000007 -19.078197 -393.725927 25.983226 6.942641 -2.129891 -0.022309 -2.538298 -712.673194 7.905262 33.147564 0.000001 -0.000002 -18.644611 173.119587 -223.426047 154.639321 -0.000001 0.000010 -18.801399 152.251528 188.644552 138.808678
